<mxfile host="app.diagrams.net" modified="2021-12-22T14:11:12.028Z" agent="5.0 (Windows NT 10.0; Win64; x64) AppleWebKit/537.36 (KHTML, like Gecko) Chrome/96.0.4664.110 Safari/537.36 Edg/96.0.1054.62" etag="pqOounB99rtzXA3WlKYA" version="16.0.0" type="github">
  <diagram id="R2lEEEUBdFMjLlhIrx00" name="Page-1">
    <mxGraphModel dx="782" dy="468" grid="1" gridSize="10" guides="1" tooltips="1" connect="1" arrows="1" fold="1" page="1" pageScale="1" pageWidth="850" pageHeight="1100" math="0" shadow="0" extFonts="Permanent Marker^https://fonts.googleapis.com/css?family=Permanent+Marker">
      <root>
        <mxCell id="0" />
        <mxCell id="1" parent="0" />
        <mxCell id="OryBWCrPy9S3BkgdXIh6-12" style="edgeStyle=orthogonalEdgeStyle;rounded=0;orthogonalLoop=1;jettySize=auto;html=1;exitX=0.5;exitY=1;exitDx=0;exitDy=0;entryX=0.5;entryY=0;entryDx=0;entryDy=0;" edge="1" parent="1" source="OryBWCrPy9S3BkgdXIh6-1" target="OryBWCrPy9S3BkgdXIh6-6">
          <mxGeometry relative="1" as="geometry" />
        </mxCell>
        <mxCell id="OryBWCrPy9S3BkgdXIh6-18" style="edgeStyle=orthogonalEdgeStyle;rounded=0;orthogonalLoop=1;jettySize=auto;html=1;exitX=1;exitY=0.5;exitDx=0;exitDy=0;entryX=0;entryY=0.5;entryDx=0;entryDy=0;" edge="1" parent="1" source="OryBWCrPy9S3BkgdXIh6-1" target="OryBWCrPy9S3BkgdXIh6-3">
          <mxGeometry relative="1" as="geometry" />
        </mxCell>
        <mxCell id="OryBWCrPy9S3BkgdXIh6-1" value="" style="whiteSpace=wrap;html=1;aspect=fixed;" vertex="1" parent="1">
          <mxGeometry x="120" y="80" width="20" height="20" as="geometry" />
        </mxCell>
        <mxCell id="OryBWCrPy9S3BkgdXIh6-14" style="edgeStyle=orthogonalEdgeStyle;rounded=0;orthogonalLoop=1;jettySize=auto;html=1;exitX=0.5;exitY=1;exitDx=0;exitDy=0;entryX=0.5;entryY=0;entryDx=0;entryDy=0;" edge="1" parent="1" source="OryBWCrPy9S3BkgdXIh6-3" target="OryBWCrPy9S3BkgdXIh6-7">
          <mxGeometry relative="1" as="geometry" />
        </mxCell>
        <mxCell id="OryBWCrPy9S3BkgdXIh6-19" style="edgeStyle=orthogonalEdgeStyle;rounded=0;orthogonalLoop=1;jettySize=auto;html=1;exitX=1;exitY=0.5;exitDx=0;exitDy=0;" edge="1" parent="1" source="OryBWCrPy9S3BkgdXIh6-3">
          <mxGeometry relative="1" as="geometry">
            <mxPoint x="200" y="90" as="targetPoint" />
          </mxGeometry>
        </mxCell>
        <mxCell id="OryBWCrPy9S3BkgdXIh6-3" value="" style="whiteSpace=wrap;html=1;aspect=fixed;" vertex="1" parent="1">
          <mxGeometry x="160" y="80" width="20" height="20" as="geometry" />
        </mxCell>
        <mxCell id="OryBWCrPy9S3BkgdXIh6-16" style="edgeStyle=orthogonalEdgeStyle;rounded=0;orthogonalLoop=1;jettySize=auto;html=1;exitX=0.5;exitY=1;exitDx=0;exitDy=0;entryX=0.5;entryY=0;entryDx=0;entryDy=0;" edge="1" parent="1" source="OryBWCrPy9S3BkgdXIh6-4" target="OryBWCrPy9S3BkgdXIh6-8">
          <mxGeometry relative="1" as="geometry" />
        </mxCell>
        <mxCell id="OryBWCrPy9S3BkgdXIh6-4" value="" style="whiteSpace=wrap;html=1;aspect=fixed;" vertex="1" parent="1">
          <mxGeometry x="201" y="80" width="20" height="20" as="geometry" />
        </mxCell>
        <mxCell id="OryBWCrPy9S3BkgdXIh6-13" style="edgeStyle=orthogonalEdgeStyle;rounded=0;orthogonalLoop=1;jettySize=auto;html=1;exitX=0.5;exitY=1;exitDx=0;exitDy=0;entryX=0.5;entryY=0;entryDx=0;entryDy=0;" edge="1" parent="1" source="OryBWCrPy9S3BkgdXIh6-6" target="OryBWCrPy9S3BkgdXIh6-9">
          <mxGeometry relative="1" as="geometry" />
        </mxCell>
        <mxCell id="OryBWCrPy9S3BkgdXIh6-23" style="edgeStyle=orthogonalEdgeStyle;rounded=0;orthogonalLoop=1;jettySize=auto;html=1;exitX=1;exitY=0.5;exitDx=0;exitDy=0;entryX=0;entryY=0.5;entryDx=0;entryDy=0;" edge="1" parent="1" source="OryBWCrPy9S3BkgdXIh6-6" target="OryBWCrPy9S3BkgdXIh6-7">
          <mxGeometry relative="1" as="geometry" />
        </mxCell>
        <mxCell id="OryBWCrPy9S3BkgdXIh6-6" value="" style="whiteSpace=wrap;html=1;aspect=fixed;" vertex="1" parent="1">
          <mxGeometry x="119" y="120" width="20" height="20" as="geometry" />
        </mxCell>
        <mxCell id="OryBWCrPy9S3BkgdXIh6-15" style="edgeStyle=orthogonalEdgeStyle;rounded=0;orthogonalLoop=1;jettySize=auto;html=1;exitX=0.5;exitY=1;exitDx=0;exitDy=0;entryX=0.5;entryY=0;entryDx=0;entryDy=0;" edge="1" parent="1" source="OryBWCrPy9S3BkgdXIh6-7" target="OryBWCrPy9S3BkgdXIh6-10">
          <mxGeometry relative="1" as="geometry" />
        </mxCell>
        <mxCell id="OryBWCrPy9S3BkgdXIh6-24" style="edgeStyle=orthogonalEdgeStyle;rounded=0;orthogonalLoop=1;jettySize=auto;html=1;exitX=1;exitY=0.5;exitDx=0;exitDy=0;entryX=0;entryY=0.5;entryDx=0;entryDy=0;" edge="1" parent="1" source="OryBWCrPy9S3BkgdXIh6-7" target="OryBWCrPy9S3BkgdXIh6-8">
          <mxGeometry relative="1" as="geometry" />
        </mxCell>
        <mxCell id="OryBWCrPy9S3BkgdXIh6-7" value="" style="whiteSpace=wrap;html=1;aspect=fixed;" vertex="1" parent="1">
          <mxGeometry x="159" y="120" width="20" height="20" as="geometry" />
        </mxCell>
        <mxCell id="OryBWCrPy9S3BkgdXIh6-17" style="edgeStyle=orthogonalEdgeStyle;rounded=0;orthogonalLoop=1;jettySize=auto;html=1;exitX=0.5;exitY=1;exitDx=0;exitDy=0;entryX=0.5;entryY=0;entryDx=0;entryDy=0;" edge="1" parent="1" source="OryBWCrPy9S3BkgdXIh6-8" target="OryBWCrPy9S3BkgdXIh6-11">
          <mxGeometry relative="1" as="geometry" />
        </mxCell>
        <mxCell id="OryBWCrPy9S3BkgdXIh6-8" value="" style="whiteSpace=wrap;html=1;aspect=fixed;" vertex="1" parent="1">
          <mxGeometry x="200" y="120" width="20" height="20" as="geometry" />
        </mxCell>
        <mxCell id="OryBWCrPy9S3BkgdXIh6-25" style="edgeStyle=orthogonalEdgeStyle;rounded=0;orthogonalLoop=1;jettySize=auto;html=1;exitX=1;exitY=0.5;exitDx=0;exitDy=0;entryX=0;entryY=0.5;entryDx=0;entryDy=0;" edge="1" parent="1" source="OryBWCrPy9S3BkgdXIh6-9" target="OryBWCrPy9S3BkgdXIh6-10">
          <mxGeometry relative="1" as="geometry" />
        </mxCell>
        <mxCell id="OryBWCrPy9S3BkgdXIh6-9" value="" style="whiteSpace=wrap;html=1;aspect=fixed;" vertex="1" parent="1">
          <mxGeometry x="119" y="160" width="20" height="20" as="geometry" />
        </mxCell>
        <mxCell id="OryBWCrPy9S3BkgdXIh6-26" style="edgeStyle=orthogonalEdgeStyle;rounded=0;orthogonalLoop=1;jettySize=auto;html=1;exitX=1;exitY=0.5;exitDx=0;exitDy=0;entryX=0;entryY=0.5;entryDx=0;entryDy=0;" edge="1" parent="1" source="OryBWCrPy9S3BkgdXIh6-10" target="OryBWCrPy9S3BkgdXIh6-11">
          <mxGeometry relative="1" as="geometry" />
        </mxCell>
        <mxCell id="OryBWCrPy9S3BkgdXIh6-10" value="" style="whiteSpace=wrap;html=1;aspect=fixed;" vertex="1" parent="1">
          <mxGeometry x="159" y="160" width="20" height="20" as="geometry" />
        </mxCell>
        <mxCell id="OryBWCrPy9S3BkgdXIh6-11" value="" style="whiteSpace=wrap;html=1;aspect=fixed;" vertex="1" parent="1">
          <mxGeometry x="200" y="160" width="20" height="20" as="geometry" />
        </mxCell>
      </root>
    </mxGraphModel>
  </diagram>
</mxfile>
